# xmcd CD database file
#
# Track frame offsets:
#	150
#	8567
#	19090
#	30450
#	42830
#	51412
#	61835
#	73472
#	83495
#	94212
#	109695
#	118405
#	129302
#	140642
#	150140
#	163260
#	174557
#	183450
#	194940
#	206152
#	216915
#	229982
#	245402
#	261502
#	273960
#	282505
#	293125
#	300980
#	309530
#	315110
#	322885
#
# Disc length: 4417 seconds
#
# Revision: 0
# Processed by: cddbd v1.4b42PL1 Copyright (c) Steve Scherf et al.
# Submitted via: CdAid 2001.05.15.01
#
DISCID=c7113f1f
DTITLE=Jimmie Driftwood - Americana Vol. 2
DYEAR=1900
DGENRE=
TTITLE0=The Land Where the Blue Grass Grows 
TTITLE1=The Widders of Bowling Green
TTITLE2=Get Along Boys
TTITLE3=Sweet Betsy From Pike
TTITLE4=Shoot the Buffalo
TTITLE5=Song of the Pioneer
TTITLE6=I'm Leavin' on the Wagon Train
TTITLE7=Jordan Am a Hard Road to Travel
TTITLE8=The Marshall of Silver City
TTITLE9=The Wilderness Road
TTITLE10=The Pony Express
TTITLE11=Mooshatanio
TTITLE12=The Shanty in the Holler
TTITLE13=Big River Man
TTITLE14=Big John Davy
TTITLE15=On Top of Pikes Peak
TTITLE16=Fidi Diddle Um A-Dazey
TTITLE17=The Song Of creation
TTITLE18=The Battle of San Juan Hill
TTITLE19=Banjer Picin' Man
TTITLE20=Tucumacari
TTITLE21=St. Brendon's Isle
TTITLE22=He Had a Long Chain On
TTITLE23=Big Hoss
TTITLE24=Sal's Got A Sugarlip
TTITLE25=Mooshatanio 1960
TTITLE26=Ox Driving Song
TTITLE27=General Custer
TTITLE28=What Was Your Name in the States
TTITLE29=Billy the Kid
TTITLE30=Jesse James
EXTD=
EXTT0=
EXTT1=
EXTT2=
EXTT3=
EXTT4=
EXTT5=
EXTT6=
EXTT7=
EXTT8=
EXTT9=
EXTT10=
EXTT11=
EXTT12=
EXTT13=
EXTT14=
EXTT15=
EXTT16=
EXTT17=
EXTT18=
EXTT19=
EXTT20=
EXTT21=
EXTT22=
EXTT23=
EXTT24=
EXTT25=
EXTT26=
EXTT27=
EXTT28=
EXTT29=
EXTT30=
PLAYORDER=
